<?xml version="1.0" encoding="UTF-8"?>
<svg id="_图层_2" data-name="图层 2" xmlns="http://www.w3.org/2000/svg" width="80" height="80" viewBox="0 0 80 80">
  <defs>
    <style>
      .cls-1 {
        fill: #f5f5f5;
      }

      .cls-2 {
        fill: #ccc;
      }
    </style>
  </defs>
  <g id="_图层_1-2" data-name="图层 1">
    <g>
      <rect class="cls-1" width="80" height="80"/>
      <path class="cls-2" d="M63.42,24.84l-11.34,20.06c-2.29,6.26-9.22,9.47-15.48,7.18s-9.47-9.22-7.18-15.48,9.22-9.47,15.48-7.18c3.2,1.17,5.74,3.63,7.02,6.78l8.55-15.14c-5.27-5.72-12.7-8.97-20.48-8.96-15.41,0-27.9,12.49-27.9,27.9s12.49,27.9,27.9,27.9,27.9-12.49,27.9-27.9c0-5.59-1.64-10.8-4.48-15.16Zm-15.86,19.16l-.02-.02,.16-.27c1.62-3.84-.17-8.26-4.01-9.88-3.84-1.62-8.26,.17-9.88,4.01s.17,8.26,4.01,9.88c3.73,1.58,8.02-.06,9.75-3.72h0Zm24.86-3.99c0,17.91-14.52,32.42-32.42,32.42S7.58,57.91,7.58,40,22.09,7.58,40,7.58s32.42,14.52,32.42,32.42Z"/>
    </g>
  </g>
</svg>