<svg viewBox="0 0 1024 1024" xmlns="http://www.w3.org/2000/svg" width="16" height="16" fill="#f56c6c">
  <path
    d="M883.026082 300.531126c-37.198563 0-52.871217 37.422458-52.871217 50.088521v450.188974c0 25.236171-28.082836 50.088521-52.935187 50.088521H248.635452c-24.78838 0-52.935187-24.85235-52.935186-50.088521V350.619647c0-12.634078-22.29355-50.088521-52.871217-50.088521-12.442168 0-52.935187 37.422458-52.935187 50.088521v500.277495c0 37.934218 66.17698 99.953147 103.375543 99.953147h637.6531c37.198563 0 104.910823-62.082899 104.910823-99.953147V350.619647c0.06397-12.634078-14.105388-50.088521-52.871216-50.088521zM458.617023 727.01921v-302.162362c0-13.241793-22.86928-23.988755-51.239981-23.988755-28.306731 0-51.239981 10.682992-51.239981 23.988755v302.226332c0 13.369733 22.965235 23.988755 51.239981 23.988755 28.370701 0 51.239981-10.682992 51.239981-24.052725zM965.707325 151.736873H58.868405c-12.442168 0-22.453475 21.84576-22.453474 48.841106s10.011307 48.777136 22.453474 48.777136h906.83892c12.346213 0 22.453475-21.84576 22.453475-48.777136s-10.075277-48.841106-22.453475-48.841106zM379.294206 100.944682h267.650539c13.529658 0 24.34059-22.581415 24.34059-50.504326 0-27.794971-10.810932-50.440356-24.34059-50.440356h-267.650539c-13.529658 0-24.34059 22.67737-24.340591 50.440356 0 27.922911 10.810932 50.504326 24.340591 50.504326z m290.775699 626.074528v-302.162362c0-13.241793-22.86928-23.988755-51.239982-23.988755-28.306731 0-51.239981 10.682992-51.239981 23.988755v302.226332c0 13.369733 22.965235 23.988755 51.239981 23.988755 28.434671 0 51.239981-10.682992 51.239982-24.052725z"
  ></path>
</svg>
