<?xml version="1.0" standalone="no"?><!DOCTYPE svg PUBLIC "-//W3C//DTD SVG 1.1//EN" "http://www.w3.org/Graphics/SVG/1.1/DTD/svg11.dtd"><svg t="1768544843603" class="icon" viewBox="0 0 1024 1024" version="1.1" xmlns="http://www.w3.org/2000/svg" p-id="3755" width="16" height="16" xmlns:xlink="http://www.w3.org/1999/xlink"><path d="M832 832c0 32-32 64-64 64H256c-32 0-64-32-64-64V192H128v640c0 70.4 57.6 128 128 128h512c70.4 0 128-57.6 128-128V192h-64v640zM96 128h832v64h-832z" fill="#000000" p-id="3756"></path><path d="M96 160m-32 0a32 32 0 1 0 64 0 32 32 0 1 0-64 0Z" fill="#000000" p-id="3757"></path><path d="M416 352m-32 0a32 32 0 1 0 64 0 32 32 0 1 0-64 0Z" fill="#000000" p-id="3758"></path><path d="M416 736m-32 0a32 32 0 1 0 64 0 32 32 0 1 0-64 0Z" fill="#000000" p-id="3759"></path><path d="M928 160m-32 0a32 32 0 1 0 64 0 32 32 0 1 0-64 0Z" fill="#000000" p-id="3760"></path><path d="M576 192H448c-38.4 0-64-25.6-64-64s25.6-64 64-64h128c38.4 0 64 25.6 64 64s-25.6 64-64 64zM384 352h64v384H384z" fill="#000000" p-id="3761"></path><path d="M608 352m-32 0a32 32 0 1 0 64 0 32 32 0 1 0-64 0Z" fill="#000000" p-id="3762"></path><path d="M608 736m-32 0a32 32 0 1 0 64 0 32 32 0 1 0-64 0Z" fill="#000000" p-id="3763"></path><path d="M576 352h64v384H576z" fill="#000000" p-id="3764"></path></svg>