<?xml version="1.0" standalone="no"?><!DOCTYPE svg PUBLIC "-//W3C//DTD SVG 1.1//EN" "http://www.w3.org/Graphics/SVG/1.1/DTD/svg11.dtd"><svg t="1773629760279" class="icon" viewBox="0 0 1024 1024" version="1.1" xmlns="http://www.w3.org/2000/svg" p-id="5255" xmlns:xlink="http://www.w3.org/1999/xlink" width="16" height="16"><path d="M894.72 277.94944h-242.37056c-37.23776 0-50.95936-8.71936-82.02752-52.05504L504.82176 136.59648a24.32 24.32 0 0 0-19.712-10.08128H199.95136c-52.59776 0-94.92992 43.2384-94.92992 79.03232v558.2336c0 67.58912 39.06048 114.83136 94.92992 114.83136H824.32c52.33152 0 94.92992-43.52 94.92992-96.93696V303.11424c0.09216-13.9008-10.98752-25.1648-24.52992-25.1648z m-24.62208 503.72608c0 25.70752-20.5312 46.6944-45.69088 46.6944H199.95136c-27.79648 0-45.78304-25.34912-45.78304-64.68096V205.73184c0.8192-7.4496 19.89632-28.9792 45.78304-28.9792h272.80384l57.95328 79.03744c35.2512 49.05472 62.40256 72.40192 121.64096 72.40192h217.74848v453.48352z" p-id="5256" fill="#f56c6c"></path><path d="M617.6512 218.44992h246.81984c13.5424 0 24.62208-11.264 24.62208-25.07264s-10.98752-25.1648-24.62208-25.1648h-246.81984c-13.53728 0-24.62208 11.264-24.62208 25.07264s11.0848 25.1648 24.62208 25.1648zM656.14848 677.5296a25.50784 25.50784 0 0 1-36.06016 0L403.8912 461.33248a25.4976 25.4976 0 0 1 36.05504-36.05504l216.20224 216.19712a25.49248 25.49248 0 0 1 0 36.05504z" p-id="5257" fill="#f56c6c"></path><path d="M403.8912 677.5296a25.51296 25.51296 0 0 1 0.00512-36.06016l216.19712-216.19712a25.4976 25.4976 0 0 1 36.05504 36.05504L439.95648 677.5296a25.51296 25.51296 0 0 1-36.06528 0z" p-id="5258" fill="#f56c6c"></path></svg>