<?xml version="1.0" standalone="no"?><!DOCTYPE svg PUBLIC "-//W3C//DTD SVG 1.1//EN" "http://www.w3.org/Graphics/SVG/1.1/DTD/svg11.dtd"><svg t="1773629934029" class="icon" viewBox="0 0 1024 1024" version="1.1" xmlns="http://www.w3.org/2000/svg" p-id="8021" xmlns:xlink="http://www.w3.org/1999/xlink" width="16" height="16"><path d="M357.649 112a140 140 0 0 1 74.358 21.38l94.851 59.457A60 60 0 0 0 558.726 202H820c77.32 0 140 62.68 140 140v430c0 77.32-62.68 140-140 140H204c-77.32 0-140-62.68-140-140V252c0-77.32 62.68-140 140-140h153.649z m0 80H204c-33.137 0-60 26.863-60 60v520c0 33.137 26.863 60 60 60h616c33.137 0 60-26.863 60-60V342c0-33.137-26.863-60-60-60H558.726a140 140 0 0 1-74.358-21.38l-94.852-59.457A60 60 0 0 0 357.65 192z" p-id="8022" fill="#000000"></path><path d="M114.05 382l796 1c22.092 0.028 39.978 17.959 39.95 40.05-0.028 22.092-17.959 39.978-40.05 39.95l-796-1c-22.092-0.028-39.978-17.959-39.95-40.05 0.028-22.092 17.959-39.978 40.05-39.95z" p-id="8023" fill="#000000"></path></svg>