<svg xmlns="http://www.w3.org/2000/svg" xmlns:xlink="http://www.w3.org/1999/xlink" x="0px" y="0px" viewBox="0 0 1024 1024" style="enable-background: new 0 0 1024 1024" xml:space="preserve" width="1024px" height="1024px">
  <style type="text/css">
    .st0 {
      fill: url(#SVGID_1_);
    }
  </style>
  <g>
    <linearGradient id="SVGID_1_" gradientUnits="userSpaceOnUse" x1="218.5516" y1="218.5516" x2="805.4484" y2="805.4484">
      <stop offset="0" style="stop-color: #4e14ff" />
      <stop offset="1" style="stop-color: #2bfdd2" />
    </linearGradient>
    <path
      class="st0"
      d="M811.8,317.9L666.7,574.7c-29.3,80.1-118,121.2-198.1,91.9c-80.1-29.3-121.2-118-91.9-198.1
		c29.3-80.1,118-121.2,198.1-91.9c40.9,15,73.5,46.5,89.9,86.8l109.5-193.8C706.7,196.4,611.6,154.8,512,154.9
		c-197.2,0-357.1,159.9-357.1,357.1S314.8,869.1,512,869.1c197.2,0,357.1-159.9,357.1-357.1C869.1,440.4,848.1,373.8,811.8,317.9z
		 M608.8,563.1l-0.3-0.2l2-3.5c20.8-49.1-2.2-105.7-51.3-126.5c-49.1-20.8-105.7,2.2-126.5,51.3c-20.8,49.1,2.2,105.7,51.3,126.5
		C531.7,630.9,586.7,609.9,608.8,563.1L608.8,563.1z M927,512c0,229.2-185.8,415-415,415S97,741.2,97,512S282.8,97,512,97
		S927,282.8,927,512z"
    />
  </g>
</svg>
