<?xml version="1.0" standalone="no"?><!DOCTYPE svg PUBLIC "-//W3C//DTD SVG 1.1//EN" "http://www.w3.org/Graphics/SVG/1.1/DTD/svg11.dtd"><svg t="1769053658549" class="icon" viewBox="0 0 1024 1024" version="1.1" xmlns="http://www.w3.org/2000/svg" p-id="1799" xmlns:xlink="http://www.w3.org/1999/xlink" width="16" height="16"><path d="M840.736 682.88a32 32 0 1 1 64 0c0 127.872-97.152 232.48-218.176 232.48H314.176C193.12 915.36 96 810.752 96 682.88v-250.656c0-127.872 97.12-232.48 218.176-232.48h477.12a32 32 0 1 1 0 64H314.144C229.568 263.744 160 338.656 160 432.224v250.656c0 93.568 69.568 168.48 154.176 168.48h372.384c84.576 0 154.176-74.912 154.176-168.48z" p-id="1800"></path><path d="M792.224 232.736l-76.128-76.128a32 32 0 0 1 45.28-45.248l98.72 98.752a32 32 0 0 1 0 45.248l-98.72 98.72a32 32 0 1 1-45.28-45.248l76.128-76.096z" p-id="1801"></path></svg>